<svg width="63" height="34" viewBox="0 0 63 34" fill="none" xmlns="http://www.w3.org/2000/svg">
<path d="M29.4422 31.3332C28.8366 31.3332 28.2616 30.9687 28.0137 30.364C26.998 27.8849 26.4494 24.9451 26.3834 21.6266C26.3731 21.1076 26.3743 20.5819 26.3871 20.0494C25.5179 19.9348 24.7217 19.4909 24.0629 18.7481C23.947 18.6175 23.8352 18.4773 23.7271 18.3278C23.7238 18.3391 23.7201 18.3509 23.7168 18.3622C23.2065 20.0578 22.6055 21.4296 21.9306 22.4404C20.6609 24.3413 19.2571 24.7406 18.3033 24.7406C17.2374 24.7406 16.3108 24.2581 15.6945 23.3814C14.7647 22.0587 14.53 19.8336 14.9776 16.5785C15.2923 14.2895 15.8682 12.0791 16.1788 11.152C16.4544 10.329 17.3335 9.8889 18.142 10.1698C18.9506 10.4503 19.3829 11.3451 19.1069 12.1682C18.8606 12.903 18.2637 15.1516 17.9898 17.4107C17.8429 18.6221 17.8124 19.6333 17.8995 20.416C17.9857 21.1932 18.1717 21.5203 18.2398 21.5863C18.2497 21.5884 18.2699 21.5909 18.3025 21.5909C18.5904 21.5909 18.9803 21.255 19.3713 20.6696C19.8647 19.931 20.3441 18.814 20.7578 17.4397C21.5284 14.8787 21.8708 12.1421 21.8708 11.5341C21.8708 10.6645 22.5634 9.95945 23.4178 9.95945C24.2721 9.95945 24.9647 10.6645 24.9647 11.5341C24.9647 12.4037 25.1668 13.9754 25.6099 15.2242C25.902 16.0473 26.267 16.6389 26.5954 16.8476C26.7357 15.5068 26.9432 14.1342 27.2167 12.738C28.241 7.51012 30.1695 2.39019 31.8027 0.564433C32.2738 0.0378687 32.9928 -0.139332 33.6343 0.113872C34.5146 0.460716 34.8223 1.39291 35.0071 2.25918C35.1527 2.94111 35.2361 3.71962 35.2361 4.39609C35.2361 8.28108 34.8553 11.3565 34.0715 13.7978C32.9804 17.197 31.2387 18.838 29.4983 19.5657C29.349 23.2772 29.8094 26.5689 30.8679 29.1526C31.1967 29.9555 30.8242 30.8771 30.0354 31.2118C29.8407 31.2945 29.639 31.3336 29.4406 31.3336L29.4422 31.3332ZM32.0889 6.71608C31.4273 8.50321 30.7586 10.769 30.2524 13.354C30.1229 14.0145 30.0098 14.6679 29.9125 15.3133C31.3542 13.3998 31.9244 10.051 32.0889 6.71608Z" fill="black"/>
<path d="M35.4242 31.4171C34.8508 31.4171 34.3001 31.0912 34.0324 30.5315C33.3641 29.1345 32.9743 27.3767 32.8736 25.3066C32.8423 24.6608 32.8386 23.991 32.8629 23.299C31.9661 22.9266 31.1175 22.3534 30.3692 21.5917C29.7653 20.9769 29.7653 19.9796 30.3692 19.3649C30.9736 18.7502 31.9529 18.7502 32.5568 19.3649C32.7561 19.5677 32.964 19.7474 33.1789 19.9032C33.1983 19.7709 33.2185 19.6383 33.2395 19.5047C33.8426 15.6936 35.0678 11.9413 36.437 9.7129C37.394 8.15504 38.3981 7.39795 39.507 7.39795C40.6158 7.39795 41.643 8.15798 42.3595 9.53864C42.8591 10.5011 43.1578 11.6394 43.1578 12.5838C43.1578 15.3145 42.6661 17.6529 41.6966 19.5354C40.7722 21.3296 39.4389 22.6339 37.84 23.3083C37.2228 23.5686 36.5847 23.7256 35.9432 23.7836C35.9024 25.9873 36.194 27.8563 36.814 29.1529C37.1882 29.9348 36.8685 30.8775 36.1004 31.2579C35.8821 31.3659 35.6515 31.4171 35.4242 31.4171ZM39.4892 10.7711C39.2194 11.0973 38.8032 11.7306 38.3152 12.832C37.6589 14.3138 37.0636 16.2076 36.6395 18.1656C36.4634 18.9782 36.3207 19.7756 36.2113 20.5511C36.3611 20.5112 36.5096 20.4604 36.6564 20.3987C38.7904 19.4988 40.0643 16.5776 40.0643 12.5842C40.0643 12.0018 39.7623 11.2057 39.4896 10.7715L39.4892 10.7711Z" fill="black"/>
<path d="M46.2311 23.5644C45.3161 23.5644 44.5142 23.1298 43.9725 22.3404C43.4466 21.5737 43.164 20.4685 43.1095 18.9618C43.0712 17.902 43.1442 16.6292 43.3269 15.1797C43.6334 12.7459 44.185 10.3394 44.449 9.60629C44.7431 8.78999 45.6321 8.3705 46.434 8.66989C47.2364 8.96929 47.6481 9.87377 47.354 10.6905C47.2232 11.0533 46.6832 13.2427 46.3837 15.6773C46.0174 18.6557 46.2612 19.8865 46.4146 20.3278C46.6135 20.1707 46.9035 19.7886 47.2079 19.0798C47.6959 17.9436 48.0099 16.497 48.2392 15.4405C48.2801 15.2528 48.318 15.0781 48.3535 14.9194C48.5445 14.0716 49.3741 13.5421 50.207 13.7361C51.0398 13.9305 51.56 14.7749 51.3694 15.6227C51.3352 15.7739 51.2993 15.9406 51.2605 16.1195C51.0035 17.3028 50.6521 18.9228 50.0428 20.3408C49.662 21.2277 49.2342 21.9108 48.7355 22.4298C47.8345 23.3671 46.8767 23.564 46.2315 23.564L46.2311 23.5644Z" fill="black"/>
<path d="M50.9767 31.8366C50.4429 31.8366 49.9239 31.5553 49.6368 31.0518C47.5788 27.4393 47.0363 21.8285 48.1489 15.6588C49.2041 9.80573 51.548 4.56655 54.4188 1.64441C55.0227 1.02966 56.0024 1.02966 56.6064 1.64441C57.2103 2.25957 57.2103 3.25643 56.6064 3.87118C54.1989 6.32176 52.1239 11.0562 51.1916 16.227C50.2247 21.5904 50.6438 26.5416 52.3128 29.4717C52.7415 30.2242 52.4898 31.1874 51.7506 31.6237C51.5064 31.7677 51.2395 31.8366 50.9759 31.8366H50.9767Z" fill="black"/>
<path d="M53.2455 24.9266C52.3924 24.9266 51.5727 24.8619 50.8265 24.7334C49.5064 24.5067 48.5502 24.0994 47.9838 23.5228C47.5416 23.0727 47.4092 22.3954 47.6484 21.8067C47.8654 21.273 48.3497 20.9076 48.9046 20.8442C49.0848 20.7565 49.5947 20.4227 50.4061 19.6114C51.227 18.7909 52.1065 17.7327 52.8829 16.6313C54.7512 13.9808 55.8225 11.4337 55.8225 9.64362C55.8225 8.77399 56.5152 8.06897 57.3695 8.06897C58.2238 8.06897 58.9164 8.77399 58.9164 9.64362C58.9164 13.152 56.5139 16.9521 55.0821 18.9051C54.3115 19.9561 53.4724 20.9484 52.6684 21.7634C53.2826 21.7899 53.934 21.7743 54.5755 21.7151C57.0609 21.4863 59.1689 20.6599 60.3594 19.448C60.9634 18.8333 61.9431 18.8333 62.547 19.448C63.151 20.0628 63.151 21.0601 62.547 21.6748C60.154 24.1107 56.5312 24.725 54.585 24.8741C54.1333 24.9089 53.6848 24.9262 53.2455 24.9262V24.9266Z" fill="black"/>
<path d="M4.21203 33.9996C3.84653 33.9996 3.5194 33.9479 3.23435 33.8702C2.48563 33.6662 1.81363 33.2164 1.29179 32.5702C0.835542 32.0054 0.493975 31.2996 0.275751 30.4715C-0.23 28.55 -0.0357025 26.1124 0.822754 23.6077C1.77485 20.8304 3.49012 18.1287 5.7825 15.7953C6.38643 15.1806 7.36617 15.1806 7.9701 15.7953C8.57403 16.4101 8.57403 17.4073 7.9701 18.0221C6.00485 20.0225 4.54328 22.3127 3.74382 24.6453C3.09698 26.5315 2.92207 28.3581 3.26405 29.656C3.43484 30.3048 3.72319 30.7428 4.03506 30.828C4.43066 30.9359 5.30933 30.6378 6.48378 29.4423C10.0212 25.8416 11.9299 17.658 11.9299 11.786C11.9299 9.46268 11.5161 7.4635 10.7649 6.15675C10.3747 5.47776 9.71259 4.66859 8.7741 4.66859C7.04151 4.66859 5.98958 7.24977 5.98958 8.38478C5.98958 9.25441 5.29696 9.95943 4.44263 9.95943C3.5883 9.95943 2.89567 9.25441 2.89567 8.38478C2.89567 7.04989 3.42576 5.43073 4.27886 4.15883C5.4203 2.45694 7.01676 1.51929 8.7741 1.51929C10.6507 1.51929 12.3057 2.60139 13.4352 4.56614C14.4743 6.37426 15.0238 8.87061 15.0238 11.786C15.0238 15.0004 14.4945 18.7628 13.5713 22.1086C12.771 25.0098 11.2711 29.0237 8.67179 31.6695C6.8831 33.4902 5.35842 34 4.21203 34V33.9996Z" fill="black"/>
<path d="M13.4365 30.9553C12.8305 30.9553 12.2554 30.5908 12.0079 29.9857C11.6792 29.1828 12.0521 28.2611 12.8408 27.9265C14.632 27.1669 21.1399 25.7303 27.6153 24.8842C33.6999 24.0889 41.964 23.499 46.781 25.2055C47.5879 25.4914 48.0144 26.3888 47.7335 27.2101C47.4526 28.0314 46.571 28.4656 45.7641 28.1797C42.4495 27.0052 36.1441 26.9443 28.0092 28.0075C21.0661 28.9149 15.2186 30.3296 14.0309 30.8335C13.8366 30.9158 13.6349 30.9548 13.4365 30.9548V30.9553Z" fill="black"/>
<path d="M47.2416 7.35597C48.153 7.35597 48.8917 6.60397 48.8917 5.67633C48.8917 4.7487 48.153 3.9967 47.2416 3.9967C46.3303 3.9967 45.5916 4.7487 45.5916 5.67633C45.5916 6.60397 46.3303 7.35597 47.2416 7.35597Z" fill="black"/>
</svg>
